<svg xmlns="http://www.w3.org/2000/svg" xmlns:xlink="http://www.w3.org/1999/xlink" version="1.1" class="marks" width="540" height="893" viewBox="0 0 540 893"><rect width="540" height="893" fill="white"/><g fill="none" stroke-miterlimit="10" transform="translate(173,22)"><g class="mark-group role-frame root" role="graphics-object" aria-roledescription="group mark container"><g transform="translate(0,0)"><path class="background" aria-hidden="true" d="M0.5,0.5h300v800h-300Z" stroke="#ddd"/><g><g class="mark-group role-axis" role="graphics-symbol" aria-roledescription="axis" aria-label="X-axis titled 'Rating' for a discrete scale with 14 values: G, NC-17, NR, PG, PG-13, ending with UR"><g transform="translate(0.5,800.5)"><path class="background" aria-hidden="true" d="M0,0h0v0h0Z" pointer-events="none"/><g><g class="mark-rule role-axis-tick" pointer-events="none"><line transform="translate(10,0)" x2="0" y2="5" stroke="#888" stroke-width="1" opacity="1"/><line transform="translate(32,0)" x2="0" y2="5" stroke="#888" stroke-width="1" opacity="1"/><line transform="translate(53,0)" x2="0" y2="5" stroke="#888" stroke-width="1" opacity="1"/><line transform="translate(75,0)" x2="0" y2="5" stroke="#888" stroke-width="1" opacity="1"/><line transform="translate(96,0)" x2="0" y2="5" stroke="#888" stroke-width="1" opacity="1"/><line transform="translate(117,0)" x2="0" y2="5" stroke="#888" stroke-width="1" opacity="1"/><line transform="translate(139,0)" x2="0" y2="5" stroke="#888" stroke-width="1" opacity="1"/><line transform="translate(160,0)" x2="0" y2="5" stroke="#888" stroke-width="1" opacity="1"/><line transform="translate(182,0)" x2="0" y2="5" stroke="#888" stroke-width="1" opacity="1"/><line transform="translate(203,0)" x2="0" y2="5" stroke="#888" stroke-width="1" opacity="1"/><line transform="translate(225,0)" x2="0" y2="5" stroke="#888" stroke-width="1" opacity="1"/><line transform="translate(246,0)" x2="0" y2="5" stroke="#888" stroke-width="1" opacity="1"/><line transform="translate(267,0)" x2="0" y2="5" stroke="#888" stroke-width="1" opacity="1"/><line transform="translate(289,0)" x2="0" y2="5" stroke="#888" stroke-width="1" opacity="1"/></g><g class="mark-text role-axis-label" pointer-events="none"><text text-anchor="end" transform="translate(10.214285714285726,7) rotate(270) translate(0,3)" font-family="sans-serif" font-size="10px" fill="#000" opacity="1">G</text><text text-anchor="end" transform="translate(31.642857142857153,7) rotate(270) translate(0,3)" font-family="sans-serif" font-size="10px" fill="#000" opacity="1">NC-17</text><text text-anchor="end" transform="translate(53.071428571428584,7) rotate(270) translate(0,3)" font-family="sans-serif" font-size="10px" fill="#000" opacity="1">NR</text><text text-anchor="end" transform="translate(74.5,7) rotate(270) translate(0,3)" font-family="sans-serif" font-size="10px" fill="#000" opacity="1">PG</text><text text-anchor="end" transform="translate(95.92857142857143,7) rotate(270) translate(0,3)" font-family="sans-serif" font-size="10px" fill="#000" opacity="1">PG-13</text><text text-anchor="end" transform="translate(117.35714285714286,7) rotate(270) translate(0,3)" font-family="sans-serif" font-size="10px" fill="#000" opacity="1">R</text><text text-anchor="end" transform="translate(138.78571428571428,7) rotate(270) translate(0,3)" font-family="sans-serif" font-size="10px" fill="#000" opacity="1">TV-14</text><text text-anchor="end" transform="translate(160.21428571428572,7) rotate(270) translate(0,3)" font-family="sans-serif" font-size="10px" fill="#000" opacity="1">TV-G</text><text text-anchor="end" transform="translate(181.64285714285714,7) rotate(270) translate(0,3)" font-family="sans-serif" font-size="10px" fill="#000" opacity="1">TV-MA</text><text text-anchor="end" transform="translate(203.07142857142856,7) rotate(270) translate(0,3)" font-family="sans-serif" font-size="10px" fill="#000" opacity="1">TV-PG</text><text text-anchor="end" transform="translate(224.5,7) rotate(270) translate(0,3)" font-family="sans-serif" font-size="10px" fill="#000" opacity="1">TV-Y</text><text text-anchor="end" transform="translate(245.92857142857142,7) rotate(270) translate(0,3)" font-family="sans-serif" font-size="10px" fill="#000" opacity="1">TV-Y7</text><text text-anchor="end" transform="translate(267.35714285714283,7) rotate(270) translate(0,3)" font-family="sans-serif" font-size="10px" fill="#000" opacity="1">TV-Y7-FV</text><text text-anchor="end" transform="translate(288.7857142857143,7) rotate(270) translate(0,3)" font-family="sans-serif" font-size="10px" fill="#000" opacity="1">UR</text></g><g class="mark-rule role-axis-domain" pointer-events="none"><line transform="translate(0,0)" x2="300" y2="0" stroke="#888" stroke-width="1" opacity="1"/></g><g class="mark-text role-axis-title" pointer-events="none"><text text-anchor="middle" transform="translate(150,63.9013671875)" font-family="sans-serif" font-size="11px" font-weight="bold" fill="#000" opacity="1">Rating</text></g></g><path class="foreground" aria-hidden="true" d="" pointer-events="none" display="none"/></g></g><g class="mark-group role-axis" role="graphics-symbol" aria-roledescription="axis" aria-label="Y-axis titled 'Genre' for a discrete scale with 42 values: Action &amp; Adventure, Anime Features, Anime Series, British TV Shows, Children &amp; Family Movies, ending with Thrillers"><g transform="translate(0.5,0.5)"><path class="background" aria-hidden="true" d="M0,0h0v0h0Z" pointer-events="none"/><g><g class="mark-rule role-axis-tick" pointer-events="none"><line transform="translate(0,9)" x2="-5" y2="0" stroke="#888" stroke-width="1" opacity="1"/><line transform="translate(0,28)" x2="-5" y2="0" stroke="#888" stroke-width="1" opacity="1"/><line transform="translate(0,47)" x2="-5" y2="0" stroke="#888" stroke-width="1" opacity="1"/><line transform="translate(0,66)" x2="-5" y2="0" stroke="#888" stroke-width="1" opacity="1"/><line transform="translate(0,85)" x2="-5" y2="0" stroke="#888" stroke-width="1" opacity="1"/><line transform="translate(0,104)" x2="-5" y2="0" stroke="#888" stroke-width="1" opacity="1"/><line transform="translate(0,123)" x2="-5" y2="0" stroke="#888" stroke-width="1" opacity="1"/><line transform="translate(0,142)" x2="-5" y2="0" stroke="#888" stroke-width="1" opacity="1"/><line transform="translate(0,161)" x2="-5" y2="0" stroke="#888" stroke-width="1" opacity="1"/><line transform="translate(0,180)" x2="-5" y2="0" stroke="#888" stroke-width="1" opacity="1"/><line transform="translate(0,200)" x2="-5" y2="0" stroke="#888" stroke-width="1" opacity="1"/><line transform="translate(0,219)" x2="-5" y2="0" stroke="#888" stroke-width="1" opacity="1"/><line transform="translate(0,238)" x2="-5" y2="0" stroke="#888" stroke-width="1" opacity="1"/><line transform="translate(0,257)" x2="-5" y2="0" stroke="#888" stroke-width="1" opacity="1"/><line transform="translate(0,276)" x2="-5" y2="0" stroke="#888" stroke-width="1" opacity="1"/><line transform="translate(0,295)" x2="-5" y2="0" stroke="#888" stroke-width="1" opacity="1"/><line transform="translate(0,314)" x2="-5" y2="0" stroke="#888" stroke-width="1" opacity="1"/><line transform="translate(0,333)" x2="-5" y2="0" stroke="#888" stroke-width="1" opacity="1"/><line transform="translate(0,352)" x2="-5" y2="0" stroke="#888" stroke-width="1" opacity="1"/><line transform="translate(0,371)" x2="-5" y2="0" stroke="#888" stroke-width="1" opacity="1"/><line transform="translate(0,390)" x2="-5" y2="0" stroke="#888" stroke-width="1" opacity="1"/><line transform="translate(0,409)" x2="-5" y2="0" stroke="#888" stroke-width="1" opacity="1"/><line transform="translate(0,428)" x2="-5" y2="0" stroke="#888" stroke-width="1" opacity="1"/><line transform="translate(0,447)" x2="-5" y2="0" stroke="#888" stroke-width="1" opacity="1"/><line transform="translate(0,466)" x2="-5" y2="0" stroke="#888" stroke-width="1" opacity="1"/><line transform="translate(0,485)" x2="-5" y2="0" stroke="#888" stroke-width="1" opacity="1"/><line transform="translate(0,504)" x2="-5" y2="0" stroke="#888" stroke-width="1" opacity="1"/><line transform="translate(0,523)" x2="-5" y2="0" stroke="#888" stroke-width="1" opacity="1"/><line transform="translate(0,542)" x2="-5" y2="0" stroke="#888" stroke-width="1" opacity="1"/><line transform="translate(0,561)" x2="-5" y2="0" stroke="#888" stroke-width="1" opacity="1"/><line transform="translate(0,580)" x2="-5" y2="0" stroke="#888" stroke-width="1" opacity="1"/><line transform="translate(0,600)" x2="-5" y2="0" stroke="#888" stroke-width="1" opacity="1"/><line transform="translate(0,619)" x2="-5" y2="0" stroke="#888" stroke-width="1" opacity="1"/><line transform="translate(0,638)" x2="-5" y2="0" stroke="#888" stroke-width="1" opacity="1"/><line transform="translate(0,657)" x2="-5" y2="0" stroke="#888" stroke-width="1" opacity="1"/><line transform="translate(0,676)" x2="-5" y2="0" stroke="#888" stroke-width="1" opacity="1"/><line transform="translate(0,695)" x2="-5" y2="0" stroke="#888" stroke-width="1" opacity="1"/><line transform="translate(0,714)" x2="-5" y2="0" stroke="#888" stroke-width="1" opacity="1"/><line transform="translate(0,733)" x2="-5" y2="0" stroke="#888" stroke-width="1" opacity="1"/><line transform="translate(0,752)" x2="-5" y2="0" stroke="#888" stroke-width="1" opacity="1"/><line transform="translate(0,771)" x2="-5" y2="0" stroke="#888" stroke-width="1" opacity="1"/><line transform="translate(0,790)" x2="-5" y2="0" stroke="#888" stroke-width="1" opacity="1"/></g><g class="mark-text role-axis-label" pointer-events="none"><text text-anchor="end" transform="translate(-7,12.023809523809534)" font-family="sans-serif" font-size="10px" fill="#000" opacity="1">Action &amp; Adventure</text><text text-anchor="end" transform="translate(-7,31.071428571428584)" font-family="sans-serif" font-size="10px" fill="#000" opacity="1">Anime Features</text><text text-anchor="end" transform="translate(-7,50.11904761904763)" font-family="sans-serif" font-size="10px" fill="#000" opacity="1">Anime Series</text><text text-anchor="end" transform="translate(-7,69.16666666666667)" font-family="sans-serif" font-size="10px" fill="#000" opacity="1">British TV Shows</text><text text-anchor="end" transform="translate(-7,88.21428571428572)" font-family="sans-serif" font-size="10px" fill="#000" opacity="1">Children &amp; Family Movies</text><text text-anchor="end" transform="translate(-7,107.26190476190477)" font-family="sans-serif" font-size="10px" fill="#000" opacity="1">Classic &amp; Cult TV</text><text text-anchor="end" transform="translate(-7,126.30952380952381)" font-family="sans-serif" font-size="10px" fill="#000" opacity="1">Classic Movies</text><text text-anchor="end" transform="translate(-7,145.3571428571429)" font-family="sans-serif" font-size="10px" fill="#000" opacity="1">Comedies</text><text text-anchor="end" transform="translate(-7,164.40476190476193)" font-family="sans-serif" font-size="10px" fill="#000" opacity="1">Crime TV Shows</text><text text-anchor="end" transform="translate(-7,183.45238095238096)" font-family="sans-serif" font-size="10px" fill="#000" opacity="1">Cult Movies</text><text text-anchor="end" transform="translate(-7,202.50000000000003)" font-family="sans-serif" font-size="10px" fill="#000" opacity="1">Documentaries</text><text text-anchor="end" transform="translate(-7,221.54761904761907)" font-family="sans-serif" font-size="10px" fill="#000" opacity="1">Docuseries</text><text text-anchor="end" transform="translate(-7,240.5952380952381)" font-family="sans-serif" font-size="10px" fill="#000" opacity="1">Dramas</text><text text-anchor="end" transform="translate(-7,259.64285714285717)" font-family="sans-serif" font-size="10px" fill="#000" opacity="1">Faith &amp; Spirituality</text><text text-anchor="end" transform="translate(-7,278.6904761904762)" font-family="sans-serif" font-size="10px" fill="#000" opacity="1">Horror Movies</text><text text-anchor="end" transform="translate(-7,297.73809523809524)" font-family="sans-serif" font-size="10px" fill="#000" opacity="1">Independent Movies</text><text text-anchor="end" transform="translate(-7,316.7857142857143)" font-family="sans-serif" font-size="10px" fill="#000" opacity="1">International Movies</text><text text-anchor="end" transform="translate(-7,335.8333333333333)" font-family="sans-serif" font-size="10px" fill="#000" opacity="1">International TV Shows</text><text text-anchor="end" transform="translate(-7,354.88095238095235)" font-family="sans-serif" font-size="10px" fill="#000" opacity="1">Kids' TV</text><text text-anchor="end" transform="translate(-7,373.92857142857144)" font-family="sans-serif" font-size="10px" fill="#000" opacity="1">Korean TV Shows</text><text text-anchor="end" transform="translate(-7,392.9761904761905)" font-family="sans-serif" font-size="10px" fill="#000" opacity="1">LGBTQ Movies</text><text text-anchor="end" transform="translate(-7,412.0238095238095)" font-family="sans-serif" font-size="10px" fill="#000" opacity="1">Movies</text><text text-anchor="end" transform="translate(-7,431.07142857142856)" font-family="sans-serif" font-size="10px" fill="#000" opacity="1">Music &amp; Musicals</text><text text-anchor="end" transform="translate(-7,450.1190476190476)" font-family="sans-serif" font-size="10px" fill="#000" opacity="1">Reality TV</text><text text-anchor="end" transform="translate(-7,469.16666666666663)" font-family="sans-serif" font-size="10px" fill="#000" opacity="1">Romantic Movies</text><text text-anchor="end" transform="translate(-7,488.2142857142857)" font-family="sans-serif" font-size="10px" fill="#000" opacity="1">Romantic TV Shows</text><text text-anchor="end" transform="translate(-7,507.26190476190476)" font-family="sans-serif" font-size="10px" fill="#000" opacity="1">Sci-Fi &amp; Fantasy</text><text text-anchor="end" transform="translate(-7,526.3095238095239)" font-family="sans-serif" font-size="10px" fill="#000" opacity="1">Science &amp; Nature TV</text><text text-anchor="end" transform="translate(-7,545.3571428571429)" font-family="sans-serif" font-size="10px" fill="#000" opacity="1">Spanish-Language TV Shows</text><text text-anchor="end" transform="translate(-7,564.4047619047619)" font-family="sans-serif" font-size="10px" fill="#000" opacity="1">Sports Movies</text><text text-anchor="end" transform="translate(-7,583.452380952381)" font-family="sans-serif" font-size="10px" fill="#000" opacity="1">Stand-Up Comedy</text><text text-anchor="end" transform="translate(-7,602.5)" font-family="sans-serif" font-size="10px" fill="#000" opacity="1">Stand-Up Comedy &amp; Talk Shows</text><text text-anchor="end" transform="translate(-7,621.547619047619)" font-family="sans-serif" font-size="10px" fill="#000" opacity="1">TV Action &amp; Adventure</text><text text-anchor="end" transform="translate(-7,640.5952380952381)" font-family="sans-serif" font-size="10px" fill="#000" opacity="1">TV Comedies</text><text text-anchor="end" transform="translate(-7,659.6428571428571)" font-family="sans-serif" font-size="10px" fill="#000" opacity="1">TV Dramas</text><text text-anchor="end" transform="translate(-7,678.6904761904761)" font-family="sans-serif" font-size="10px" fill="#000" opacity="1">TV Horror</text><text text-anchor="end" transform="translate(-7,697.7380952380952)" font-family="sans-serif" font-size="10px" fill="#000" opacity="1">TV Mysteries</text><text text-anchor="end" transform="translate(-7,716.7857142857142)" font-family="sans-serif" font-size="10px" fill="#000" opacity="1">TV Sci-Fi &amp; Fantasy</text><text text-anchor="end" transform="translate(-7,735.8333333333334)" font-family="sans-serif" font-size="10px" fill="#000" opacity="1">TV Shows</text><text text-anchor="end" transform="translate(-7,754.8809523809524)" font-family="sans-serif" font-size="10px" fill="#000" opacity="1">TV Thrillers</text><text text-anchor="end" transform="translate(-7,773.9285714285714)" font-family="sans-serif" font-size="10px" fill="#000" opacity="1">Teen TV Shows</text><text text-anchor="end" transform="translate(-7,792.9761904761905)" font-family="sans-serif" font-size="10px" fill="#000" opacity="1">Thrillers</text></g><g class="mark-rule role-axis-domain" pointer-events="none"><line transform="translate(0,0)" x2="0" y2="800" stroke="#888" stroke-width="1" opacity="1"/></g><g class="mark-text role-axis-title" pointer-events="none"><text text-anchor="middle" transform="translate(-156.0634765625,400) rotate(-90) translate(0,-2)" font-family="sans-serif" font-size="11px" font-weight="bold" fill="#000" opacity="1">Genre</text></g></g><path class="foreground" aria-hidden="true" d="" pointer-events="none" display="none"/></g></g><g class="mark-rect role-mark marks" role="graphics-symbol" aria-roledescription="rect mark container"><path d="M279.6428571428571,0.9523809523809632h19.285714285714285v17.142857142857142h-19.285714285714285Z" fill="rgb(207, 225, 242)"/><path d="M279.6428571428571,134.2857142857143h19.285714285714285v17.142857142857142h-19.285714285714285Z" fill="rgb(207, 225, 242)"/><path d="M279.6428571428571,229.52380952380952h19.285714285714285v17.142857142857142h-19.285714285714285Z" fill="rgb(207, 225, 242)"/><path d="M279.6428571428571,305.7142857142857h19.285714285714285v17.142857142857142h-19.285714285714285Z" fill="rgb(207, 225, 242)"/><path d="M279.6428571428571,458.0952380952381h19.285714285714285v17.142857142857142h-19.285714285714285Z" fill="rgb(207, 225, 242)"/><path d="M258.21428571428567,77.14285714285715h19.285714285714285v17.142857142857142h-19.285714285714285Z" fill="rgb(206, 225, 242)"/><path d="M258.21428571428567,134.2857142857143h19.285714285714285v17.142857142857142h-19.285714285714285Z" fill="rgb(207, 225, 242)"/><path d="M258.21428571428567,0.9523809523809632h19.285714285714285v17.142857142857142h-19.285714285714285Z" fill="rgb(207, 225, 242)"/><path d="M258.21428571428567,343.8095238095238h19.285714285714285v17.142857142857142h-19.285714285714285Z" fill="rgb(207, 225, 242)"/><path d="M258.21428571428567,610.4761904761905h19.285714285714285v17.142857142857142h-19.285714285714285Z" fill="rgb(207, 225, 242)"/><path d="M258.21428571428567,705.7142857142857h19.285714285714285v17.142857142857142h-19.285714285714285Z" fill="rgb(207, 225, 242)"/><path d="M236.78571428571428,58.0952380952381h19.285714285714285v17.142857142857142h-19.285714285714285Z" fill="rgb(206, 225, 242)"/><path d="M236.78571428571428,343.8095238095238h19.285714285714285v17.142857142857142h-19.285714285714285Z" fill="rgb(175, 209, 231)"/><path d="M236.78571428571428,77.14285714285715h19.285714285714285v17.142857142857142h-19.285714285714285Z" fill="rgb(187, 215, 235)"/><path d="M236.78571428571428,134.2857142857143h19.285714285714285v17.142857142857142h-19.285714285714285Z" fill="rgb(200, 221, 240)"/><path d="M236.78571428571428,610.4761904761905h19.285714285714285v17.142857142857142h-19.285714285714285Z" fill="rgb(205, 224, 241)"/><path d="M236.78571428571428,705.7142857142857h19.285714285714285v17.142857142857142h-19.285714285714285Z" fill="rgb(206, 224, 242)"/><path d="M236.78571428571428,629.5238095238095h19.285714285714285v17.142857142857142h-19.285714285714285Z" fill="rgb(199, 221, 239)"/><path d="M236.78571428571428,39.04761904761906h19.285714285714285v17.142857142857142h-19.285714285714285Z" fill="rgb(203, 223, 241)"/><path d="M236.78571428571428,420h19.285714285714285v17.142857142857142h-19.285714285714285Z" fill="rgb(206, 224, 242)"/><path d="M236.78571428571428,743.8095238095239h19.285714285714285v17.142857142857142h-19.285714285714285Z" fill="rgb(207, 225, 242)"/><path d="M236.78571428571428,96.1904761904762h19.285714285714285v17.142857142857142h-19.285714285714285Z" fill="rgb(207, 225, 242)"/><path d="M236.78571428571428,381.9047619047619h19.285714285714285v17.142857142857142h-19.285714285714285Z" fill="rgb(207, 225, 242)"/><path d="M236.78571428571428,400.95238095238096h19.285714285714285v17.142857142857142h-19.285714285714285Z" fill="rgb(206, 224, 242)"/><path d="M236.78571428571428,362.8571428571429h19.285714285714285v17.142857142857142h-19.285714285714285Z" fill="rgb(205, 224, 241)"/><path d="M236.78571428571428,496.1904761904762h19.285714285714285v17.142857142857142h-19.285714285714285Z" fill="rgb(207, 225, 242)"/><path d="M236.78571428571428,153.33333333333334h19.285714285714285v17.142857142857142h-19.285714285714285Z" fill="rgb(207, 225, 242)"/><path d="M236.78571428571428,286.6666666666667h19.285714285714285v17.142857142857142h-19.285714285714285Z" fill="rgb(207, 225, 242)"/><path d="M236.78571428571428,324.76190476190476h19.285714285714285v17.142857142857142h-19.285714285714285Z" fill="rgb(207, 225, 242)"/><path d="M236.78571428571428,439.04761904761904h19.285714285714285v17.142857142857142h-19.285714285714285Z" fill="rgb(207, 225, 242)"/><path d="M236.78571428571428,534.2857142857143h19.285714285714285v17.142857142857142h-19.285714285714285Z" fill="rgb(207, 225, 242)"/><path d="M236.78571428571428,20.00000000000001h19.285714285714285v17.142857142857142h-19.285714285714285Z" fill="rgb(207, 225, 242)"/><path d="M236.78571428571428,553.3333333333334h19.285714285714285v17.142857142857142h-19.285714285714285Z" fill="rgb(207, 225, 242)"/><path d="M236.78571428571428,229.52380952380952h19.285714285714285v17.142857142857142h-19.285714285714285Z" fill="rgb(207, 225, 242)"/><path d="M236.78571428571428,305.7142857142857h19.285714285714285v17.142857142857142h-19.285714285714285Z" fill="rgb(207, 225, 242)"/><path d="M215.35714285714286,343.8095238095238h19.285714285714285v17.142857142857142h-19.285714285714285Z" fill="rgb(178, 210, 232)"/><path d="M215.35714285714286,77.14285714285715h19.285714285714285v17.142857142857142h-19.285714285714285Z" fill="rgb(190, 216, 236)"/><path d="M215.35714285714286,362.8571428571429h19.285714285714285v17.142857142857142h-19.285714285714285Z" fill="rgb(206, 224, 242)"/><path d="M215.35714285714286,58.0952380952381h19.285714285714285v17.142857142857142h-19.285714285714285Z" fill="rgb(204, 223, 241)"/><path d="M215.35714285714286,629.5238095238095h19.285714285714285v17.142857142857142h-19.285714285714285Z" fill="rgb(203, 223, 241)"/><path d="M215.35714285714286,134.2857142857143h19.285714285714285v17.142857142857142h-19.285714285714285Z" fill="rgb(204, 223, 241)"/><path d="M215.35714285714286,229.52380952380952h19.285714285714285v17.142857142857142h-19.285714285714285Z" fill="rgb(207, 225, 242)"/><path d="M215.35714285714286,420h19.285714285714285v17.142857142857142h-19.285714285714285Z" fill="rgb(206, 225, 242)"/><path d="M215.35714285714286,553.3333333333334h19.285714285714285v17.142857142857142h-19.285714285714285Z" fill="rgb(207, 225, 242)"/><path d="M215.35714285714286,400.95238095238096h19.285714285714285v17.142857142857142h-19.285714285714285Z" fill="rgb(205, 224, 241)"/><path d="M215.35714285714286,496.1904761904762h19.285714285714285v17.142857142857142h-19.285714285714285Z" fill="rgb(207, 225, 242)"/><path d="M215.35714285714286,96.1904761904762h19.285714285714285v17.142857142857142h-19.285714285714285Z" fill="rgb(207, 225, 242)"/><path d="M215.35714285714286,534.2857142857143h19.285714285714285v17.142857142857142h-19.285714285714285Z" fill="rgb(207, 225, 242)"/><path d="M215.35714285714286,743.8095238095239h19.285714285714285v17.142857142857142h-19.285714285714285Z" fill="rgb(207, 225, 242)"/><path d="M215.35714285714286,39.04761904761906h19.285714285714285v17.142857142857142h-19.285714285714285Z" fill="rgb(207, 225, 242)"/><path d="M215.35714285714286,305.7142857142857h19.285714285714285v17.142857142857142h-19.285714285714285Z" fill="rgb(207, 225, 242)"/><path d="M215.35714285714286,705.7142857142857h19.285714285714285v17.142857142857142h-19.285714285714285Z" fill="rgb(207, 225, 242)"/><path d="M193.92857142857142,191.42857142857144h19.285714285714285v17.142857142857142h-19.285714285714285Z" fill="rgb(180, 211, 233)"/><path d="M193.92857142857142,305.7142857142857h19.285714285714285v17.142857142857142h-19.285714285714285Z" fill="rgb(153, 198, 225)"/><path d="M193.92857142857142,420h19.285714285714285v17.142857142857142h-19.285714285714285Z" fill="rgb(199, 221, 239)"/><path d="M193.92857142857142,210.47619047619048h19.285714285714285v17.142857142857142h-19.285714285714285Z" fill="rgb(192, 217, 237)"/><path d="M193.92857142857142,515.2380952380953h19.285714285714285v17.142857142857142h-19.285714285714285Z" fill="rgb(201, 222, 240)"/><path d="M193.92857142857142,58.0952380952381h19.285714285714285v17.142857142857142h-19.285714285714285Z" fill="rgb(199, 221, 239)"/><path d="M193.92857142857142,343.8095238095238h19.285714285714285v17.142857142857142h-19.285714285714285Z" fill="rgb(201, 222, 240)"/><path d="M193.92857142857142,77.14285714285715h19.285714285714285v17.142857142857142h-19.285714285714285Z" fill="rgb(194, 218, 238)"/><path d="M193.92857142857142,134.2857142857143h19.285714285714285v17.142857142857142h-19.285714285714285Z" fill="rgb(182, 213, 234)"/><path d="M193.92857142857142,229.52380952380952h19.285714285714285v17.142857142857142h-19.285714285714285Z" fill="rgb(173, 208, 231)"/><path d="M193.92857142857142,0.9523809523809632h19.285714285714285v17.142857142857142h-19.285714285714285Z" fill="rgb(202, 222, 240)"/><path d="M193.92857142857142,20.00000000000001h19.285714285714285v17.142857142857142h-19.285714285714285Z" fill="rgb(204, 224, 241)"/><path d="M193.92857142857142,324.76190476190476h19.285714285714285v17.142857142857142h-19.285714285714285Z" fill="rgb(186, 214, 235)"/><path d="M193.92857142857142,248.57142857142858h19.285714285714285v17.142857142857142h-19.285714285714285Z" fill="rgb(204, 223, 241)"/><path d="M193.92857142857142,553.3333333333334h19.285714285714285v17.142857142857142h-19.285714285714285Z" fill="rgb(203, 223, 241)"/><path d="M193.92857142857142,648.5714285714286h19.285714285714285v17.142857142857142h-19.285714285714285Z" fill="rgb(200, 221, 239)"/><path d="M193.92857142857142,705.7142857142857h19.285714285714285v17.142857142857142h-19.285714285714285Z" fill="rgb(206, 224, 242)"/><path d="M193.92857142857142,439.04761904761904h19.285714285714285v17.142857142857142h-19.285714285714285Z" fill="rgb(196, 219, 238)"/><path d="M193.92857142857142,458.0952380952381h19.285714285714285v17.142857142857142h-19.285714285714285Z" fill="rgb(196, 219, 238)"/><path d="M193.92857142857142,629.5238095238095h19.285714285714285v17.142857142857142h-19.285714285714285Z" fill="rgb(198, 220, 239)"/><path d="M193.92857142857142,762.8571428571429h19.285714285714285v17.142857142857142h-19.285714285714285Z" fill="rgb(205, 224, 241)"/><path d="M193.92857142857142,286.6666666666667h19.285714285714285v17.142857142857142h-19.285714285714285Z" fill="rgb(202, 222, 240)"/><path d="M193.92857142857142,381.9047619047619h19.285714285714285v17.142857142857142h-19.285714285714285Z" fill="rgb(205, 224, 241)"/><path d="M193.92857142857142,477.14285714285717h19.285714285714285v17.142857142857142h-19.285714285714285Z" fill="rgb(201, 222, 240)"/><path d="M193.92857142857142,610.4761904761905h19.285714285714285v17.142857142857142h-19.285714285714285Z" fill="rgb(205, 224, 241)"/><path d="M193.92857142857142,534.2857142857143h19.285714285714285v17.142857142857142h-19.285714285714285Z" fill="rgb(205, 224, 241)"/><path d="M193.92857142857142,572.3809523809524h19.285714285714285v17.142857142857142h-19.285714285714285Z" fill="rgb(206, 225, 242)"/><path d="M193.92857142857142,39.04761904761906h19.285714285714285v17.142857142857142h-19.285714285714285Z" fill="rgb(205, 224, 241)"/><path d="M193.92857142857142,591.4285714285714h19.285714285714285v17.142857142857142h-19.285714285714285Z" fill="rgb(206, 225, 242)"/><path d="M193.92857142857142,496.1904761904762h19.285714285714285v17.142857142857142h-19.285714285714285Z" fill="rgb(206, 225, 242)"/><path d="M193.92857142857142,686.6666666666666h19.285714285714285v17.142857142857142h-19.285714285714285Z" fill="rgb(207, 225, 242)"/><path d="M193.92857142857142,172.38095238095238h19.285714285714285v17.142857142857142h-19.285714285714285Z" fill="rgb(207, 225, 242)"/><path d="M193.92857142857142,96.1904761904762h19.285714285714285v17.142857142857142h-19.285714285714285Z" fill="rgb(206, 225, 242)"/><path d="M193.92857142857142,115.23809523809524h19.285714285714285v17.142857142857142h-19.285714285714285Z" fill="rgb(205, 224, 241)"/><path d="M193.92857142857142,400.95238095238096h19.285714285714285v17.142857142857142h-19.285714285714285Z" fill="rgb(206, 225, 242)"/><path d="M193.92857142857142,153.33333333333334h19.285714285714285v17.142857142857142h-19.285714285714285Z" fill="rgb(207, 225, 242)"/><path d="M193.92857142857142,781.9047619047619h19.285714285714285v17.142857142857142h-19.285714285714285Z" fill="rgb(206, 225, 242)"/><path d="M193.92857142857142,743.8095238095239h19.285714285714285v17.142857142857142h-19.285714285714285Z" fill="rgb(207, 225, 242)"/><path d="M193.92857142857142,667.6190476190476h19.285714285714285v17.142857142857142h-19.285714285714285Z" fill="rgb(207, 225, 242)"/><path d="M193.92857142857142,362.8571428571429h19.285714285714285v17.142857142857142h-19.285714285714285Z" fill="rgb(205, 224, 241)"/><path d="M193.92857142857142,267.61904761904765h19.285714285714285v17.142857142857142h-19.285714285714285Z" fill="rgb(207, 225, 242)"/><path d="M172.5,191.42857142857144h19.285714285714285v17.142857142857142h-19.285714285714285Z" fill="rgb(147, 195, 223)"/><path d="M172.5,305.7142857142857h19.285714285714285v17.142857142857142h-19.285714285714285Z" fill="rgb(10, 74, 144)"/><path d="M172.5,267.61904761904765h19.285714285714285v17.142857142857142h-19.285714285714285Z" fill="rgb(181, 212, 233)"/><path d="M172.5,781.9047619047619h19.285714285714285v17.142857142857142h-19.285714285714285Z" fill="rgb(165, 204, 228)"/><path d="M172.5,0.9523809523809632h19.285714285714285v17.142857142857142h-19.285714285714285Z" fill="rgb(173, 208, 231)"/><path d="M172.5,229.52380952380952h19.285714285714285v17.142857142857142h-19.285714285714285Z" fill="rgb(43, 123, 185)"/><path d="M172.5,286.6666666666667h19.285714285714285v17.142857142857142h-19.285714285714285Z" fill="rgb(142, 192, 222)"/><path d="M172.5,134.2857142857143h19.285714285714285v17.142857142857142h-19.285714285714285Z" fill="rgb(121, 181, 216)"/><path d="M172.5,553.3333333333334h19.285714285714285v17.142857142857142h-19.285714285714285Z" fill="rgb(196, 219, 238)"/><path d="M172.5,210.47619047619048h19.285714285714285v17.142857142857142h-19.285714285714285Z" fill="rgb(177, 210, 232)"/><path d="M172.5,515.2380952380953h19.285714285714285v17.142857142857142h-19.285714285714285Z" fill="rgb(205, 224, 241)"/><path d="M172.5,610.4761904761905h19.285714285714285v17.142857142857142h-19.285714285714285Z" fill="rgb(194, 218, 237)"/><path d="M172.5,572.3809523809524h19.285714285714285v17.142857142857142h-19.285714285714285Z" fill="rgb(154, 199, 225)"/><path d="M172.5,58.0952380952381h19.285714285714285v17.142857142857142h-19.285714285714285Z" fill="rgb(191, 216, 236)"/><path d="M172.5,629.5238095238095h19.285714285714285v17.142857142857142h-19.285714285714285Z" fill="rgb(159, 201, 226)"/><path d="M172.5,648.5714285714286h19.285714285714285v17.142857142857142h-19.285714285714285Z" fill="rgb(120, 180, 216)"/><path d="M172.5,439.04761904761904h19.285714285714285v17.142857142857142h-19.285714285714285Z" fill="rgb(195, 218, 238)"/><path d="M172.5,381.9047619047619h19.285714285714285v17.142857142857142h-19.285714285714285Z" fill="rgb(198, 220, 239)"/><path d="M172.5,20.00000000000001h19.285714285714285v17.142857142857142h-19.285714285714285Z" fill="rgb(205, 224, 241)"/><path d="M172.5,324.76190476190476h19.285714285714285v17.142857142857142h-19.285714285714285Z" fill="rgb(63, 141, 195)"/><path d="M172.5,705.7142857142857h19.285714285714285v17.142857142857142h-19.285714285714285Z" fill="rgb(204, 223, 241)"/><path d="M172.5,153.33333333333334h19.285714285714285v17.142857142857142h-19.285714285714285Z" fill="rgb(141, 192, 221)"/><path d="M172.5,534.2857142857143h19.285714285714285v17.142857142857142h-19.285714285714285Z" fill="rgb(187, 215, 235)"/><path d="M172.5,39.04761904761906h19.285714285714285v17.142857142857142h-19.285714285714285Z" fill="rgb(198, 220, 239)"/><path d="M172.5,667.6190476190476h19.285714285714285v17.142857142857142h-19.285714285714285Z" fill="rgb(199, 221, 239)"/><path d="M172.5,743.8095238095239h19.285714285714285v17.142857142857142h-19.285714285714285Z" fill="rgb(201, 222, 240)"/><path d="M172.5,96.1904761904762h19.285714285714285v17.142857142857142h-19.285714285714285Z" fill="rgb(206, 224, 242)"/><path d="M172.5,496.1904761904762h19.285714285714285v17.142857142857142h-19.285714285714285Z" fill="rgb(200, 221, 239)"/><path d="M172.5,420h19.285714285714285v17.142857142857142h-19.285714285714285Z" fill="rgb(189, 216, 236)"/><path d="M172.5,686.6666666666666h19.285714285714285v17.142857142857142h-19.285714285714285Z" fill="rgb(197, 220, 239)"/><path d="M172.5,724.7619047619048h19.285714285714285v17.142857142857142h-19.285714285714285Z" fill="rgb(206, 225, 242)"/><path d="M172.5,477.14285714285717h19.285714285714285v17.142857142857142h-19.285714285714285Z" fill="rgb(186, 214, 235)"/><path d="M172.5,591.4285714285714h19.285714285714285v17.142857142857142h-19.285714285714285Z" fill="rgb(201, 222, 240)"/><path d="M172.5,458.0952380952381h19.285714285714285v17.142857142857142h-19.285714285714285Z" fill="rgb(183, 213, 234)"/><path d="M172.5,762.8571428571429h19.285714285714285v17.142857142857142h-19.285714285714285Z" fill="rgb(204, 223, 241)"/><path d="M172.5,400.95238095238096h19.285714285714285v17.142857142857142h-19.285714285714285Z" fill="rgb(205, 224, 241)"/><path d="M172.5,172.38095238095238h19.285714285714285v17.142857142857142h-19.285714285714285Z" fill="rgb(206, 225, 242)"/><path d="M172.5,115.23809523809524h19.285714285714285v17.142857142857142h-19.285714285714285Z" fill="rgb(205, 224, 241)"/><path d="M172.5,248.57142857142858h19.285714285714285v17.142857142857142h-19.285714285714285Z" fill="rgb(207, 225, 242)"/><path d="M172.5,362.8571428571429h19.285714285714285v17.142857142857142h-19.285714285714285Z" fill="rgb(200, 221, 240)"/><path d="M172.5,77.14285714285715h19.285714285714285v17.142857142857142h-19.285714285714285Z" fill="rgb(207, 225, 242)"/><path d="M151.07142857142858,134.2857142857143h19.285714285714285v17.142857142857142h-19.285714285714285Z" fill="rgb(203, 223, 241)"/><path d="M151.07142857142858,305.7142857142857h19.285714285714285v17.142857142857142h-19.285714285714285Z" fill="rgb(199, 221, 239)"/><path d="M151.07142857142858,458.0952380952381h19.285714285714285v17.142857142857142h-19.285714285714285Z" fill="rgb(205, 224, 241)"/><path d="M151.07142857142858,191.42857142857144h19.285714285714285v17.142857142857142h-19.285714285714285Z" fill="rgb(200, 221, 240)"/><path d="M151.07142857142858,420h19.285714285714285v17.142857142857142h-19.285714285714285Z" fill="rgb(204, 224, 241)"/><path d="M151.07142857142858,210.47619047619048h19.285714285714285v17.142857142857142h-19.285714285714285Z" fill="rgb(204, 223, 241)"/><path d="M151.07142857142858,324.76190476190476h19.285714285714285v17.142857142857142h-19.285714285714285Z" fill="rgb(204, 223, 241)"/><path d="M151.07142857142858,515.2380952380953h19.285714285714285v17.142857142857142h-19.285714285714285Z" fill="rgb(205, 224, 241)"/><path d="M151.07142857142858,77.14285714285715h19.285714285714285v17.142857142857142h-19.285714285714285Z" fill="rgb(199, 221, 239)"/><path d="M151.07142857142858,343.8095238095238h19.285714285714285v17.142857142857142h-19.285714285714285Z" fill="rgb(201, 222, 240)"/><path d="M151.07142857142858,629.5238095238095h19.285714285714285v17.142857142857142h-19.285714285714285Z" fill="rgb(203, 223, 241)"/><path d="M151.07142857142858,553.3333333333334h19.285714285714285v17.142857142857142h-19.285714285714285Z" fill="rgb(206, 225, 242)"/><path d="M151.07142857142858,572.3809523809524h19.285714285714285v17.142857142857142h-19.285714285714285Z" fill="rgb(207, 225, 242)"/><path d="M151.07142857142858,439.04761904761904h19.285714285714285v17.142857142857142h-19.285714285714285Z" fill="rgb(204, 223, 241)"/><path d="M151.07142857142858,705.7142857142857h19.285714285714285v17.142857142857142h-19.285714285714285Z" fill="rgb(207, 225, 242)"/><path d="M151.07142857142858,229.52380952380952h19.285714285714285v17.142857142857142h-19.285714285714285Z" fill="rgb(203, 223, 241)"/><path d="M151.07142857142858,115.23809523809524h19.285714285714285v17.142857142857142h-19.285714285714285Z" fill="rgb(207, 225, 242)"/><path d="M151.07142857142858,648.5714285714286h19.285714285714285v17.142857142857142h-19.285714285714285Z" fill="rgb(206, 224, 242)"/><path d="M151.07142857142858,58.0952380952381h19.285714285714285v17.142857142857142h-19.285714285714285Z" fill="rgb(205, 224, 241)"/><path d="M151.07142857142858,610.4761904761905h19.285714285714285v17.142857142857142h-19.285714285714285Z" fill="rgb(207, 225, 242)"/><path d="M151.07142857142858,591.4285714285714h19.285714285714285v17.142857142857142h-19.285714285714285Z" fill="rgb(207, 225, 242)"/><path d="M151.07142857142858,286.6666666666667h19.285714285714285v17.142857142857142h-19.285714285714285Z" fill="rgb(207, 225, 242)"/><path d="M151.07142857142858,724.7619047619048h19.285714285714285v17.142857142857142h-19.285714285714285Z" fill="rgb(207, 225, 242)"/><path d="M151.07142857142858,248.57142857142858h19.285714285714285v17.142857142857142h-19.285714285714285Z" fill="rgb(207, 225, 242)"/><path d="M151.07142857142858,400.95238095238096h19.285714285714285v17.142857142857142h-19.285714285714285Z" fill="rgb(207, 225, 242)"/><path d="M151.07142857142858,96.1904761904762h19.285714285714285v17.142857142857142h-19.285714285714285Z" fill="rgb(207, 225, 242)"/><path d="M151.07142857142858,477.14285714285717h19.285714285714285v17.142857142857142h-19.285714285714285Z" fill="rgb(207, 225, 242)"/><path d="M151.07142857142858,153.33333333333334h19.285714285714285v17.142857142857142h-19.285714285714285Z" fill="rgb(207, 225, 242)"/><path d="M151.07142857142858,534.2857142857143h19.285714285714285v17.142857142857142h-19.285714285714285Z" fill="rgb(207, 225, 242)"/><path d="M151.07142857142858,362.8571428571429h19.285714285714285v17.142857142857142h-19.285714285714285Z" fill="rgb(207, 225, 242)"/><path d="M151.07142857142858,20.00000000000001h19.285714285714285v17.142857142857142h-19.285714285714285Z" fill="rgb(207, 225, 242)"/><path d="M151.07142857142858,762.8571428571429h19.285714285714285v17.142857142857142h-19.285714285714285Z" fill="rgb(207, 225, 242)"/><path d="M151.07142857142858,743.8095238095239h19.285714285714285v17.142857142857142h-19.285714285714285Z" fill="rgb(207, 225, 242)"/><path d="M151.07142857142858,686.6666666666666h19.285714285714285v17.142857142857142h-19.285714285714285Z" fill="rgb(207, 225, 242)"/><path d="M129.64285714285714,229.52380952380952h19.285714285714285v17.142857142857142h-19.285714285714285Z" fill="rgb(67, 144, 197)"/><path d="M129.64285714285714,305.7142857142857h19.285714285714285v17.142857142857142h-19.285714285714285Z" fill="rgb(15, 85, 156)"/><path d="M129.64285714285714,458.0952380952381h19.285714285714285v17.142857142857142h-19.285714285714285Z" fill="rgb(172, 208, 230)"/><path d="M129.64285714285714,0.9523809523809632h19.285714285714285v17.142857142857142h-19.285714285714285Z" fill="rgb(171, 207, 230)"/><path d="M129.64285714285714,134.2857142857143h19.285714285714285v17.142857142857142h-19.285714285714285Z" fill="rgb(113, 176, 214)"/><path d="M129.64285714285714,191.42857142857144h19.285714285714285v17.142857142857142h-19.285714285714285Z" fill="rgb(168, 206, 229)"/><path d="M129.64285714285714,248.57142857142858h19.285714285714285v17.142857142857142h-19.285714285714285Z" fill="rgb(204, 224, 241)"/><path d="M129.64285714285714,648.5714285714286h19.285714285714285v17.142857142857142h-19.285714285714285Z" fill="rgb(159, 201, 227)"/><path d="M129.64285714285714,686.6666666666666h19.285714285714285v17.142857142857142h-19.285714285714285Z" fill="rgb(202, 223, 240)"/><path d="M129.64285714285714,705.7142857142857h19.285714285714285v17.142857142857142h-19.285714285714285Z" fill="rgb(201, 222, 240)"/><path d="M129.64285714285714,115.23809523809524h19.285714285714285v17.142857142857142h-19.285714285714285Z" fill="rgb(204, 223, 241)"/><path d="M129.64285714285714,553.3333333333334h19.285714285714285v17.142857142857142h-19.285714285714285Z" fill="rgb(201, 222, 240)"/><path d="M129.64285714285714,477.14285714285717h19.285714285714285v17.142857142857142h-19.285714285714285Z" fill="rgb(175, 209, 231)"/><path d="M129.64285714285714,629.5238095238095h19.285714285714285v17.142857142857142h-19.285714285714285Z" fill="rgb(185, 214, 234)"/><path d="M129.64285714285714,324.76190476190476h19.285714285714285v17.142857142857142h-19.285714285714285Z" fill="rgb(112, 176, 214)"/><path d="M129.64285714285714,439.04761904761904h19.285714285714285v17.142857142857142h-19.285714285714285Z" fill="rgb(195, 219, 238)"/><path d="M129.64285714285714,534.2857142857143h19.285714285714285v17.142857142857142h-19.285714285714285Z" fill="rgb(203, 223, 241)"/><path d="M129.64285714285714,39.04761904761906h19.285714285714285v17.142857142857142h-19.285714285714285Z" fill="rgb(196, 219, 238)"/><path d="M129.64285714285714,153.33333333333334h19.285714285714285v17.142857142857142h-19.285714285714285Z" fill="rgb(190, 216, 236)"/><path d="M129.64285714285714,210.47619047619048h19.285714285714285v17.142857142857142h-19.285714285714285Z" fill="rgb(193, 218, 237)"/><path d="M129.64285714285714,286.6666666666667h19.285714285714285v17.142857142857142h-19.285714285714285Z" fill="rgb(189, 216, 236)"/><path d="M129.64285714285714,496.1904761904762h19.285714285714285v17.142857142857142h-19.285714285714285Z" fill="rgb(203, 223, 241)"/><path d="M129.64285714285714,267.61904761904765h19.285714285714285v17.142857142857142h-19.285714285714285Z" fill="rgb(201, 222, 240)"/><path d="M129.64285714285714,781.9047619047619h19.285714285714285v17.142857142857142h-19.285714285714285Z" fill="rgb(189, 216, 236)"/><path d="M129.64285714285714,610.4761904761905h19.285714285714285v17.142857142857142h-19.285714285714285Z" fill="rgb(201, 222, 240)"/><path d="M129.64285714285714,96.1904761904762h19.285714285714285v17.142857142857142h-19.285714285714285Z" fill="rgb(206, 224, 242)"/><path d="M129.64285714285714,667.6190476190476h19.285714285714285v17.142857142857142h-19.285714285714285Z" fill="rgb(205, 224, 241)"/><path d="M129.64285714285714,515.2380952380953h19.285714285714285v17.142857142857142h-19.285714285714285Z" fill="rgb(204, 223, 241)"/><path d="M129.64285714285714,762.8571428571429h19.285714285714285v17.142857142857142h-19.285714285714285Z" fill="rgb(202, 223, 240)"/><path d="M129.64285714285714,572.3809523809524h19.285714285714285v17.142857142857142h-19.285714285714285Z" fill="rgb(203, 223, 241)"/><path d="M129.64285714285714,724.7619047619048h19.285714285714285v17.142857142857142h-19.285714285714285Z" fill="rgb(206, 224, 242)"/><path d="M129.64285714285714,420h19.285714285714285v17.142857142857142h-19.285714285714285Z" fill="rgb(190, 216, 236)"/><path d="M129.64285714285714,381.9047619047619h19.285714285714285v17.142857142857142h-19.285714285714285Z" fill="rgb(206, 224, 242)"/><path d="M129.64285714285714,743.8095238095239h19.285714285714285v17.142857142857142h-19.285714285714285Z" fill="rgb(205, 224, 241)"/><path d="M129.64285714285714,77.14285714285715h19.285714285714285v17.142857142857142h-19.285714285714285Z" fill="rgb(204, 224, 241)"/><path d="M129.64285714285714,591.4285714285714h19.285714285714285v17.142857142857142h-19.285714285714285Z" fill="rgb(206, 224, 242)"/><path d="M129.64285714285714,58.0952380952381h19.285714285714285v17.142857142857142h-19.285714285714285Z" fill="rgb(200, 221, 240)"/><path d="M129.64285714285714,400.95238095238096h19.285714285714285v17.142857142857142h-19.285714285714285Z" fill="rgb(207, 225, 242)"/><path d="M129.64285714285714,20.00000000000001h19.285714285714285v17.142857142857142h-19.285714285714285Z" fill="rgb(204, 223, 241)"/><path d="M129.64285714285714,362.8571428571429h19.285714285714285v17.142857142857142h-19.285714285714285Z" fill="rgb(198, 220, 239)"/><path d="M129.64285714285714,172.38095238095238h19.285714285714285v17.142857142857142h-19.285714285714285Z" fill="rgb(206, 225, 242)"/><path d="M108.21428571428572,134.2857142857143h19.285714285714285v17.142857142857142h-19.285714285714285Z" fill="rgb(177, 210, 232)"/><path d="M108.21428571428572,229.52380952380952h19.285714285714285v17.142857142857142h-19.285714285714285Z" fill="rgb(135, 188, 220)"/><path d="M108.21428571428572,305.7142857142857h19.285714285714285v17.142857142857142h-19.285714285714285Z" fill="rgb(192, 217, 237)"/><path d="M108.21428571428572,0.9523809523809632h19.285714285714285v17.142857142857142h-19.285714285714285Z" fill="rgb(169, 207, 229)"/><path d="M108.21428571428572,267.61904761904765h19.285714285714285v17.142857142857142h-19.285714285714285Z" fill="rgb(193, 217, 237)"/><path d="M108.21428571428572,496.1904761904762h19.285714285714285v17.142857142857142h-19.285714285714285Z" fill="rgb(200, 221, 240)"/><path d="M108.21428571428572,286.6666666666667h19.285714285714285v17.142857142857142h-19.285714285714285Z" fill="rgb(175, 209, 231)"/><path d="M108.21428571428572,781.9047619047619h19.285714285714285v17.142857142857142h-19.285714285714285Z" fill="rgb(182, 213, 234)"/><path d="M108.21428571428572,458.0952380952381h19.285714285714285v17.142857142857142h-19.285714285714285Z" fill="rgb(199, 221, 239)"/><path d="M108.21428571428572,172.38095238095238h19.285714285714285v17.142857142857142h-19.285714285714285Z" fill="rgb(202, 222, 240)"/><path d="M108.21428571428572,115.23809523809524h19.285714285714285v17.142857142857142h-19.285714285714285Z" fill="rgb(202, 223, 240)"/><path d="M108.21428571428572,420h19.285714285714285v17.142857142857142h-19.285714285714285Z" fill="rgb(204, 223, 241)"/><path d="M108.21428571428572,191.42857142857144h19.285714285714285v17.142857142857142h-19.285714285714285Z" fill="rgb(203, 223, 241)"/><path d="M108.21428571428572,553.3333333333334h19.285714285714285v17.142857142857142h-19.285714285714285Z" fill="rgb(205, 224, 241)"/><path d="M108.21428571428572,572.3809523809524h19.285714285714285v17.142857142857142h-19.285714285714285Z" fill="rgb(206, 225, 242)"/><path d="M108.21428571428572,381.9047619047619h19.285714285714285v17.142857142857142h-19.285714285714285Z" fill="rgb(205, 224, 241)"/><path d="M108.21428571428572,400.95238095238096h19.285714285714285v17.142857142857142h-19.285714285714285Z" fill="rgb(207, 225, 242)"/><path d="M108.21428571428572,724.7619047619048h19.285714285714285v17.142857142857142h-19.285714285714285Z" fill="rgb(207, 225, 242)"/><path d="M108.21428571428572,248.57142857142858h19.285714285714285v17.142857142857142h-19.285714285714285Z" fill="rgb(207, 225, 242)"/><path d="M108.21428571428572,324.76190476190476h19.285714285714285v17.142857142857142h-19.285714285714285Z" fill="rgb(207, 225, 242)"/><path d="M108.21428571428572,648.5714285714286h19.285714285714285v17.142857142857142h-19.285714285714285Z" fill="rgb(207, 225, 242)"/><path d="M108.21428571428572,743.8095238095239h19.285714285714285v17.142857142857142h-19.285714285714285Z" fill="rgb(207, 225, 242)"/><path d="M86.78571428571429,229.52380952380952h19.285714285714285v17.142857142857142h-19.285714285714285Z" fill="rgb(175, 209, 231)"/><path d="M86.78571428571429,781.9047619047619h19.285714285714285v17.142857142857142h-19.285714285714285Z" fill="rgb(199, 221, 239)"/><path d="M86.78571428571429,305.7142857142857h19.285714285714285v17.142857142857142h-19.285714285714285Z" fill="rgb(199, 221, 239)"/><path d="M86.78571428571429,496.1904761904762h19.285714285714285v17.142857142857142h-19.285714285714285Z" fill="rgb(194, 218, 237)"/><path d="M86.78571428571429,134.2857142857143h19.285714285714285v17.142857142857142h-19.285714285714285Z" fill="rgb(179, 211, 233)"/><path d="M86.78571428571429,458.0952380952381h19.285714285714285v17.142857142857142h-19.285714285714285Z" fill="rgb(194, 218, 237)"/><path d="M86.78571428571429,0.9523809523809632h19.285714285714285v17.142857142857142h-19.285714285714285Z" fill="rgb(183, 213, 234)"/><path d="M86.78571428571429,172.38095238095238h19.285714285714285v17.142857142857142h-19.285714285714285Z" fill="rgb(205, 224, 241)"/><path d="M86.78571428571429,115.23809523809524h19.285714285714285v17.142857142857142h-19.285714285714285Z" fill="rgb(206, 224, 242)"/><path d="M86.78571428571429,191.42857142857144h19.285714285714285v17.142857142857142h-19.285714285714285Z" fill="rgb(202, 222, 240)"/><path d="M86.78571428571429,420h19.285714285714285v17.142857142857142h-19.285714285714285Z" fill="rgb(205, 224, 241)"/><path d="M86.78571428571429,267.61904761904765h19.285714285714285v17.142857142857142h-19.285714285714285Z" fill="rgb(201, 222, 240)"/><path d="M86.78571428571429,20.00000000000001h19.285714285714285v17.142857142857142h-19.285714285714285Z" fill="rgb(207, 225, 242)"/><path d="M86.78571428571429,553.3333333333334h19.285714285714285v17.142857142857142h-19.285714285714285Z" fill="rgb(203, 223, 241)"/><path d="M86.78571428571429,286.6666666666667h19.285714285714285v17.142857142857142h-19.285714285714285Z" fill="rgb(202, 222, 240)"/><path d="M86.78571428571429,248.57142857142858h19.285714285714285v17.142857142857142h-19.285714285714285Z" fill="rgb(206, 224, 242)"/><path d="M86.78571428571429,572.3809523809524h19.285714285714285v17.142857142857142h-19.285714285714285Z" fill="rgb(207, 225, 242)"/><path d="M86.78571428571429,381.9047619047619h19.285714285714285v17.142857142857142h-19.285714285714285Z" fill="rgb(206, 224, 242)"/><path d="M86.78571428571429,77.14285714285715h19.285714285714285v17.142857142857142h-19.285714285714285Z" fill="rgb(205, 224, 241)"/><path d="M65.35714285714286,77.14285714285715h19.285714285714285v17.142857142857142h-19.285714285714285Z" fill="rgb(174, 209, 231)"/><path d="M65.35714285714286,134.2857142857143h19.285714285714285v17.142857142857142h-19.285714285714285Z" fill="rgb(183, 213, 234)"/><path d="M65.35714285714286,420h19.285714285714285v17.142857142857142h-19.285714285714285Z" fill="rgb(205, 224, 241)"/><path d="M65.35714285714286,191.42857142857144h19.285714285714285v17.142857142857142h-19.285714285714285Z" fill="rgb(204, 223, 241)"/><path d="M65.35714285714286,229.52380952380952h19.285714285714285v17.142857142857142h-19.285714285714285Z" fill="rgb(197, 220, 238)"/><path d="M65.35714285714286,0.9523809523809632h19.285714285714285v17.142857142857142h-19.285714285714285Z" fill="rgb(202, 223, 240)"/><path d="M65.35714285714286,115.23809523809524h19.285714285714285v17.142857142857142h-19.285714285714285Z" fill="rgb(205, 224, 241)"/><path d="M65.35714285714286,553.3333333333334h19.285714285714285v17.142857142857142h-19.285714285714285Z" fill="rgb(204, 223, 241)"/><path d="M65.35714285714286,458.0952380952381h19.285714285714285v17.142857142857142h-19.285714285714285Z" fill="rgb(204, 223, 241)"/><path d="M65.35714285714286,305.7142857142857h19.285714285714285v17.142857142857142h-19.285714285714285Z" fill="rgb(205, 224, 241)"/><path d="M65.35714285714286,286.6666666666667h19.285714285714285v17.142857142857142h-19.285714285714285Z" fill="rgb(206, 225, 242)"/><path d="M65.35714285714286,496.1904761904762h19.285714285714285v17.142857142857142h-19.285714285714285Z" fill="rgb(204, 223, 241)"/><path d="M65.35714285714286,248.57142857142858h19.285714285714285v17.142857142857142h-19.285714285714285Z" fill="rgb(205, 224, 241)"/><path d="M65.35714285714286,267.61904761904765h19.285714285714285v17.142857142857142h-19.285714285714285Z" fill="rgb(207, 225, 242)"/><path d="M65.35714285714286,781.9047619047619h19.285714285714285v17.142857142857142h-19.285714285714285Z" fill="rgb(207, 225, 242)"/><path d="M65.35714285714286,172.38095238095238h19.285714285714285v17.142857142857142h-19.285714285714285Z" fill="rgb(207, 225, 242)"/><path d="M65.35714285714286,20.00000000000001h19.285714285714285v17.142857142857142h-19.285714285714285Z" fill="rgb(206, 225, 242)"/><path d="M43.92857142857144,191.42857142857144h19.285714285714285v17.142857142857142h-19.285714285714285Z" fill="rgb(204, 223, 241)"/><path d="M43.92857142857144,305.7142857142857h19.285714285714285v17.142857142857142h-19.285714285714285Z" fill="rgb(202, 222, 240)"/><path d="M43.92857142857144,229.52380952380952h19.285714285714285v17.142857142857142h-19.285714285714285Z" fill="rgb(203, 223, 241)"/><path d="M43.92857142857144,286.6666666666667h19.285714285714285v17.142857142857142h-19.285714285714285Z" fill="rgb(205, 224, 241)"/><path d="M43.92857142857144,400.95238095238096h19.285714285714285v17.142857142857142h-19.285714285714285Z" fill="rgb(207, 225, 242)"/><path d="M43.92857142857144,267.61904761904765h19.285714285714285v17.142857142857142h-19.285714285714285Z" fill="rgb(206, 225, 242)"/><path d="M43.92857142857144,781.9047619047619h19.285714285714285v17.142857142857142h-19.285714285714285Z" fill="rgb(207, 225, 242)"/><path d="M43.92857142857144,134.2857142857143h19.285714285714285v17.142857142857142h-19.285714285714285Z" fill="rgb(205, 224, 241)"/><path d="M43.92857142857144,381.9047619047619h19.285714285714285v17.142857142857142h-19.285714285714285Z" fill="rgb(207, 225, 242)"/><path d="M43.92857142857144,0.9523809523809632h19.285714285714285v17.142857142857142h-19.285714285714285Z" fill="rgb(206, 224, 242)"/><path d="M43.92857142857144,572.3809523809524h19.285714285714285v17.142857142857142h-19.285714285714285Z" fill="rgb(206, 225, 242)"/><path d="M43.92857142857144,115.23809523809524h19.285714285714285v17.142857142857142h-19.285714285714285Z" fill="rgb(207, 225, 242)"/><path d="M43.92857142857144,458.0952380952381h19.285714285714285v17.142857142857142h-19.285714285714285Z" fill="rgb(207, 225, 242)"/><path d="M43.92857142857144,553.3333333333334h19.285714285714285v17.142857142857142h-19.285714285714285Z" fill="rgb(207, 225, 242)"/><path d="M43.92857142857144,172.38095238095238h19.285714285714285v17.142857142857142h-19.285714285714285Z" fill="rgb(207, 225, 242)"/><path d="M43.92857142857144,610.4761904761905h19.285714285714285v17.142857142857142h-19.285714285714285Z" fill="rgb(207, 225, 242)"/><path d="M43.92857142857144,629.5238095238095h19.285714285714285v17.142857142857142h-19.285714285714285Z" fill="rgb(207, 225, 242)"/><path d="M43.92857142857144,705.7142857142857h19.285714285714285v17.142857142857142h-19.285714285714285Z" fill="rgb(207, 225, 242)"/><path d="M43.92857142857144,210.47619047619048h19.285714285714285v17.142857142857142h-19.285714285714285Z" fill="rgb(207, 225, 242)"/><path d="M43.92857142857144,591.4285714285714h19.285714285714285v17.142857142857142h-19.285714285714285Z" fill="rgb(207, 225, 242)"/><path d="M43.92857142857144,58.0952380952381h19.285714285714285v17.142857142857142h-19.285714285714285Z" fill="rgb(207, 225, 242)"/><path d="M43.92857142857144,477.14285714285717h19.285714285714285v17.142857142857142h-19.285714285714285Z" fill="rgb(207, 225, 242)"/><path d="M43.92857142857144,648.5714285714286h19.285714285714285v17.142857142857142h-19.285714285714285Z" fill="rgb(207, 225, 242)"/><path d="M43.92857142857144,153.33333333333334h19.285714285714285v17.142857142857142h-19.285714285714285Z" fill="rgb(207, 225, 242)"/><path d="M43.92857142857144,324.76190476190476h19.285714285714285v17.142857142857142h-19.285714285714285Z" fill="rgb(207, 225, 242)"/><path d="M43.92857142857144,534.2857142857143h19.285714285714285v17.142857142857142h-19.285714285714285Z" fill="rgb(207, 225, 242)"/><path d="M43.92857142857144,420h19.285714285714285v17.142857142857142h-19.285714285714285Z" fill="rgb(207, 225, 242)"/><path d="M22.50000000000001,134.2857142857143h19.285714285714285v17.142857142857142h-19.285714285714285Z" fill="rgb(207, 225, 242)"/><path d="M22.50000000000001,286.6666666666667h19.285714285714285v17.142857142857142h-19.285714285714285Z" fill="rgb(207, 225, 242)"/><path d="M22.50000000000001,229.52380952380952h19.285714285714285v17.142857142857142h-19.285714285714285Z" fill="rgb(207, 225, 242)"/><path d="M22.50000000000001,305.7142857142857h19.285714285714285v17.142857142857142h-19.285714285714285Z" fill="rgb(207, 225, 242)"/><path d="M1.0714285714285836,77.14285714285715h19.285714285714285v17.142857142857142h-19.285714285714285Z" fill="rgb(202, 222, 240)"/><path d="M1.0714285714285836,134.2857142857143h19.285714285714285v17.142857142857142h-19.285714285714285Z" fill="rgb(205, 224, 241)"/><path d="M1.0714285714285836,496.1904761904762h19.285714285714285v17.142857142857142h-19.285714285714285Z" fill="rgb(207, 225, 242)"/><path d="M1.0714285714285836,115.23809523809524h19.285714285714285v17.142857142857142h-19.285714285714285Z" fill="rgb(206, 224, 242)"/><path d="M1.0714285714285836,229.52380952380952h19.285714285714285v17.142857142857142h-19.285714285714285Z" fill="rgb(206, 225, 242)"/><path d="M1.0714285714285836,420h19.285714285714285v17.142857142857142h-19.285714285714285Z" fill="rgb(206, 225, 242)"/><path d="M1.0714285714285836,191.42857142857144h19.285714285714285v17.142857142857142h-19.285714285714285Z" fill="rgb(206, 225, 242)"/><path d="M1.0714285714285836,0.9523809523809632h19.285714285714285v17.142857142857142h-19.285714285714285Z" fill="rgb(207, 225, 242)"/><path d="M1.0714285714285836,305.7142857142857h19.285714285714285v17.142857142857142h-19.285714285714285Z" fill="rgb(207, 225, 242)"/></g><g class="mark-group role-legend" role="graphics-symbol" aria-roledescription="legend" aria-label="Gradient legend titled 'count' for fill color with values from 1 to 1,130"><g transform="translate(318,0)"><path class="background" aria-hidden="true" d="M0,0h44v216h-44Z" pointer-events="none"/><g><g class="mark-group role-legend-entry"><g transform="translate(0,16)"><path class="background" aria-hidden="true" d="M0,0h0v0h0Z" pointer-events="none"/><g><g class="mark-rect role-legend-gradient" pointer-events="none"><path d="M0,0h16v200h-16Z" fill="url(#gradient_0)" stroke="#ddd" stroke-width="0" opacity="1"/></g><g class="mark-text role-legend-label" pointer-events="none"><text text-anchor="start" transform="translate(18,167.74756421612048)" font-family="sans-serif" font-size="10px" fill="#000" opacity="1">200</text><text text-anchor="start" transform="translate(18,132.31798051372897)" font-family="sans-serif" font-size="10px" fill="#000" opacity="1">400</text><text text-anchor="start" transform="translate(18,96.88839681133747)" font-family="sans-serif" font-size="10px" fill="#000" opacity="1">600</text><text text-anchor="start" transform="translate(18,61.45881310894596)" font-family="sans-serif" font-size="10px" fill="#000" opacity="1">800</text><text text-anchor="start" transform="translate(18,26.029229406554474)" font-family="sans-serif" font-size="10px" fill="#000" opacity="1">1,000</text></g></g><path class="foreground" aria-hidden="true" d="" pointer-events="none" display="none"/></g></g><g class="mark-text role-legend-title" pointer-events="none"><text text-anchor="start" transform="translate(0,9)" font-family="sans-serif" font-size="11px" font-weight="bold" fill="#000" opacity="1">count</text></g></g><path class="foreground" aria-hidden="true" d="" pointer-events="none" display="none"/></g></g><g class="mark-group role-title"><g transform="translate(150,-17)"><path class="background" aria-hidden="true" d="M0,0h0v0h0Z" pointer-events="none"/><g><g class="mark-text role-title-text" role="graphics-symbol" aria-roledescription="title" aria-label="Title text 'Genre Count by Rating'" pointer-events="none"><text text-anchor="middle" transform="translate(0,10)" font-family="sans-serif" font-size="13px" font-weight="bold" fill="#000" opacity="1">Genre Count by Rating</text></g></g><path class="foreground" aria-hidden="true" d="" pointer-events="none" display="none"/></g></g></g><path class="foreground" aria-hidden="true" d="" display="none"/></g></g></g><defs><linearGradient id="gradient_0" x1="0" x2="0" y1="1" y2="0"><stop offset="0" stop-color="rgb(207, 225, 242)"/><stop offset="0.08768821966341896" stop-color="rgb(192, 217, 237)"/><stop offset="0.1762621789193977" stop-color="rgb(173, 208, 231)"/><stop offset="0.26483613817537643" stop-color="rgb(152, 198, 224)"/><stop offset="0.3534100974313552" stop-color="rgb(129, 185, 218)"/><stop offset="0.4419840566873339" stop-color="rgb(106, 172, 212)"/><stop offset="0.5305580159433126" stop-color="rgb(84, 158, 204)"/><stop offset="0.6191319751992914" stop-color="rgb(65, 143, 196)"/><stop offset="0.7077059344552702" stop-color="rgb(48, 128, 188)"/><stop offset="0.7962798937112489" stop-color="rgb(33, 112, 178)"/><stop offset="0.8848538529672276" stop-color="rgb(20, 95, 166)"/><stop offset="0.9734278122232064" stop-color="rgb(12, 79, 149)"/><stop offset="1" stop-color="rgb(10, 74, 144)"/></linearGradient></defs></svg>